<?xml version="1.0" standalone="no"?>
<!DOCTYPE svg PUBLIC "-//W3C//DTD SVG 20010904//EN"
 "http://www.w3.org/TR/2001/REC-SVG-20010904/DTD/svg10.dtd">
<svg version="1.0" xmlns="http://www.w3.org/2000/svg"
 width="500.000000pt" height="500.000000pt" viewBox="0 0 500.000000 500.000000"
 preserveAspectRatio="xMidYMid meet">

<g transform="translate(0.000000,500.000000) scale(0.100000,-0.100000)"
fill="#000000" stroke="none">
<path d="M2155 4840 c-17 -28 17 -51 229 -157 240 -121 345 -190 452 -300 134
-137 179 -304 113 -412 l-21 -34 -40 63 c-50 79 -105 153 -123 163 -21 11 -45
-3 -45 -28 0 -12 15 -42 34 -66 86 -113 190 -312 202 -387 15 -96 -52 -151
-134 -108 -15 8 -47 35 -72 60 -53 55 -76 58 -95 14 -22 -54 -60 -83 -110 -83
-47 0 -77 20 -101 67 -21 41 -60 38 -78 -6 -17 -42 -42 -56 -95 -56 -62 0
-111 46 -217 200 -116 168 -173 229 -257 270 -75 37 -112 37 -112 1 0 -20 12
-30 64 -57 79 -41 133 -92 210 -204 l60 -87 -26 -38 c-70 -103 -116 -255 -132
-438 -5 -60 -12 -112 -16 -115 -3 -3 -81 -10 -173 -14 -186 -9 -297 -22 -336
-39 -64 -29 -99 -276 -231 -1604 -41 -418 -77 -770 -80 -782 -3 -12 -2 -29 1
-37 6 -14 130 -16 1303 -15 713 1 1395 4 1516 8 l220 6 -1 70 c-2 94 -137
1278 -200 1745 -45 338 -89 565 -115 596 -6 8 -28 18 -48 24 -40 10 -291 30
-393 30 l-66 0 -7 98 c-9 139 -31 277 -55 353 -24 80 -87 178 -142 222 -50 40
-83 100 -64 116 23 20 66 109 75 157 26 138 -65 323 -225 459 -109 92 -206
152 -415 256 -189 94 -240 112 -254 89z m946 -1290 c28 -73 48 -185 55 -295 2
-49 7 -105 9 -122 l4 -33 -620 0 -619 0 0 58 c0 130 39 303 88 397 39 74 36
74 92 21 93 -87 189 -103 272 -45 26 19 27 19 63 -6 73 -49 153 -45 214 11 45
40 52 41 77 13 28 -32 93 -59 144 -59 80 0 137 51 147 131 l6 42 24 -29 c13
-16 33 -54 44 -84z m-8 -526 l77 -7 0 -188 c0 -180 1 -188 20 -194 45 -14 50
5 50 201 l0 184 38 0 c64 0 356 -20 385 -26 18 -4 32 -15 38 -32 26 -68 79
-408 139 -902 42 -343 158 -1364 155 -1368 -1 -1 -654 -5 -1450 -9 l-1448 -6
6 39 c3 21 27 248 52 504 118 1200 168 1621 206 1737 8 26 17 32 47 37 71 12
267 26 353 26 l86 0 7 -192 c5 -150 10 -196 22 -208 11 -11 18 -12 32 -4 15
10 17 33 18 205 0 107 1 197 2 202 2 9 1058 10 1165 1z"/>
<path d="M1770 2450 c0 -5 15 -10 33 -10 18 0 43 -7 55 -16 53 -37 52 -30 52
-632 0 -308 -4 -581 -9 -608 -26 -136 -85 -224 -180 -268 -36 -17 -64 -21
-133 -20 -48 0 -85 -3 -82 -7 10 -16 110 -31 175 -26 137 11 243 87 299 211
47 104 50 153 50 735 0 584 0 579 52 615 12 9 37 16 55 16 18 0 33 5 33 10 0
6 -73 10 -200 10 -127 0 -200 -4 -200 -10z"/>
<path d="M2828 1404 c4 -325 2 -338 -55 -347 -16 -2 19 -4 77 -5 81 0 97 2 73
9 -18 5 -37 18 -43 29 -7 12 -9 103 -8 246 l3 227 273 -259 c150 -142 276
-260 280 -262 4 -1 6 134 4 299 -2 268 -1 304 14 320 9 10 26 20 38 22 11 2
-24 4 -79 4 -55 0 -90 -2 -79 -4 52 -10 55 -22 52 -267 l-3 -228 -269 254
c-148 139 -272 254 -275 256 -3 1 -5 -131 -3 -294z"/>
<path d="M2440 1680 c59 -14 60 -17 60 -310 0 -293 -1 -296 -60 -310 -24 -5 4
-8 90 -8 93 0 117 2 93 9 -61 18 -63 26 -63 309 0 283 2 291 63 309 24 7 0 9
-93 9 -86 0 -114 -3 -90 -8z"/>
</g>
</svg>
